<svg width="300" height="188" viewBox="0 0 300 188" fill="none" xmlns="http://www.w3.org/2000/svg">
<g clip-path="url(#clip0_2373_3568)">
<path d="M87.1345 101.197C84.2399 102.903 81.8256 105.235 79.898 108.193V99.2184H63.3964V153.059H79.898V128.069C79.898 123.626 80.9219 120.53 82.9822 118.754C85.0425 116.99 88.1267 116.106 92.2474 116.106H96.7789V98.637C93.246 98.637 90.029 99.4902 87.1345 101.197Z" fill="#301038"/>
<path d="M173.264 53.7962C169.7 53.3791 166.154 53.0252 162.621 52.7408V101.885C158.241 99.0099 153.002 97.3287 147.371 97.3287C132.013 97.3287 119.563 109.779 119.563 125.137C119.563 140.495 132.013 152.945 147.371 152.945C153.002 152.945 158.241 151.264 162.621 148.388V153.059H179.123L178.921 54.403C176.974 54.1059 175.223 54.0364 173.264 53.7962ZM147.371 137.777C140.387 137.777 134.731 132.121 134.731 125.137C134.731 118.153 140.387 112.497 147.371 112.497C154.354 112.497 160.011 118.153 160.011 125.137C160.011 132.121 154.354 137.777 147.371 137.777Z" fill="#301038"/>
<path d="M224.975 99.2184V103.642C220.639 100.849 215.482 99.2248 209.939 99.2248C194.582 99.2248 182.131 111.675 182.131 127.033C182.131 142.391 194.582 154.841 209.939 154.841C215.482 154.841 220.639 153.217 224.975 150.423V152.964C224.975 155.22 224.697 157.161 224.134 158.772C223.635 160.238 222.895 161.439 221.935 162.368C219.912 164.328 217.195 165.313 213.782 165.313C210.951 165.313 208.574 164.713 206.647 163.525C205.642 162.906 204.833 162.172 204.213 161.319C201.154 160.814 198.222 159.91 195.485 158.652H186.669C187.377 165.086 190.208 170.186 195.163 173.947C200.112 177.707 206.577 179.59 214.553 179.59C220.538 179.59 225.537 178.402 229.557 176.02C233.576 173.643 236.572 170.439 238.531 166.42C240.497 162.4 241.476 157.913 241.476 152.964V99.2184H224.975ZM209.939 139.673C202.956 139.673 197.299 134.017 197.299 127.033C197.299 120.049 202.956 114.393 209.939 114.393C216.923 114.393 222.579 120.049 222.579 127.033C222.579 134.017 216.923 139.673 209.939 139.673Z" fill="#301038"/>
<path d="M100.9 99.2184V153.059H117.401V99.2184H100.9Z" fill="#301038"/>
<path d="M109.451 92.9047C113.988 92.9047 117.667 89.2263 117.667 84.6887C117.667 80.1511 113.988 76.4726 109.451 76.4726C104.913 76.4726 101.234 80.1511 101.234 84.6887C101.234 89.2263 104.913 92.9047 109.451 92.9047Z" fill="#301038"/>
<path d="M151.163 30.3362C159.54 30.3362 166.331 23.5452 166.331 15.1681C166.331 6.791 159.54 0 151.163 0C142.786 0 135.995 6.791 135.995 15.1681C135.995 23.5452 142.786 30.3362 151.163 30.3362Z" fill="#301038"/>
<path d="M102.498 30.3362C108.432 30.3362 113.243 25.526 113.243 19.5922C113.243 13.6584 108.432 8.84808 102.498 8.84808C96.5647 8.84808 91.7544 13.6584 91.7544 19.5922C91.7544 25.526 96.5647 30.3362 102.498 30.3362Z" fill="#301038"/>
<path d="M56.9941 45.5043C61.5317 45.5043 65.2102 41.8259 65.2102 37.2883C65.2102 32.7507 61.5317 29.0722 56.9941 29.0722C52.4565 29.0722 48.7781 32.7507 48.7781 37.2883C48.7781 41.8259 52.4565 45.5043 56.9941 45.5043Z" fill="#301038"/>
<path d="M200.459 34.1282C206.393 34.1282 211.203 29.3179 211.203 23.3842C211.203 17.4504 206.393 12.6401 200.459 12.6401C194.525 12.6401 189.715 17.4504 189.715 23.3842C189.715 29.3179 194.525 34.1282 200.459 34.1282Z" fill="#301038"/>
<path d="M248.492 51.8244C253.029 51.8244 256.708 48.1459 256.708 43.6083C256.708 39.0707 253.029 35.3923 248.492 35.3923C243.954 35.3923 240.276 39.0707 240.276 43.6083C240.276 48.1459 243.954 51.8244 248.492 51.8244Z" fill="#301038"/>
<path d="M300 126.085C300 110.904 287.689 98.5927 272.508 98.5927C257.327 98.5927 245.016 110.904 245.016 126.085C245.016 141.266 257.327 153.577 272.508 153.577C283.258 153.577 292.568 147.402 297.087 138.409H280.68C278.354 140.002 275.541 140.937 272.508 140.937C266.023 140.937 260.531 136.69 258.661 130.825H299.589C299.861 129.283 300 127.703 300 126.085ZM259.128 120.713C261.34 115.511 266.497 111.865 272.508 111.865C278.518 111.865 283.675 115.511 285.887 120.713H259.128Z" fill="#301038"/>
<path d="M31.8656 97.3287C26.4999 97.3287 21.4944 98.8519 17.2474 101.481V91.0087C14.9279 92.7783 12.8676 94.4215 11.1801 95.7993C8.34242 98.1251 6.56649 99.7051 6.43377 99.8567C7.3881 97.8786 8.3361 96.0331 9.27779 94.3077C11.9701 89.3908 14.6435 85.447 17.2474 82.1606V53.7078C17.1842 53.7141 17.1273 53.7141 17.0641 53.7204C14.1126 56.3495 11.2749 59.0988 8.56363 61.9554C5.82705 64.831 3.21055 67.8457 0.745728 70.9741V153.059H17.2474V148.793C21.4944 151.422 26.4999 152.945 31.8656 152.945C47.2234 152.945 59.6738 140.495 59.6738 125.137C59.6738 109.779 47.2234 97.3287 31.8656 97.3287ZM31.8656 137.777C24.882 137.777 19.2255 132.121 19.2255 125.137C19.2255 118.153 24.882 112.497 31.8656 112.497C38.8493 112.497 44.5057 118.153 44.5057 125.137C44.5057 132.121 38.8493 137.777 31.8656 137.777Z" fill="#301038"/>
<path d="M292.732 103.402C262.611 73.3884 219.773 53.1769 173.732 47.5078C162.362 46.168 151.112 45.4854 140.286 45.4854C99.8757 45.4854 65.1534 54.6431 37.0797 72.7122C27.7134 78.7162 19.0865 85.7694 11.3445 93.7326C11.8185 92.9869 12.2735 92.279 12.697 91.6344C16.0972 86.5973 19.9461 81.8004 24.1363 77.3953C51.4136 48.677 93.2333 32.8643 141.891 32.8643C160.264 32.8643 178.63 35.1142 196.471 39.5572C224.842 46.7873 250.647 60.3881 271.079 78.8868C280.079 87.1092 287.227 95.1926 292.732 103.402Z" fill="#301038"/>
</g>
<defs>
<clipPath id="clip0_2373_3568">
<rect width="300" height="187.042" fill="white"/>
</clipPath>
</defs>
</svg>
