<svg width="283" height="280" viewBox="0 0 283 280" fill="none" xmlns="http://www.w3.org/2000/svg">
    <g clip-path="url(#clip0_1_8348)">
        <path d="M39.0603 72.4879C58.8651 72.4879 74.92 56.4329 74.92 36.6282C74.92 16.8234 58.8651 0.768433 39.0603 0.768433C19.2555 0.768433 3.20056 16.8234 3.20056 36.6282C3.20056 56.4329 19.2555 72.4879 39.0603 72.4879Z" fill="#43224D" />
        <path d="M39.0603 279.595C58.8651 279.595 74.92 263.54 74.92 243.735C74.92 223.93 58.8651 207.875 39.0603 207.875C19.2555 207.875 3.20056 223.93 3.20056 243.735C3.20056 263.54 19.2555 279.595 39.0603 279.595Z" fill="#43224D" />
        <path d="M243.106 176.053C262.911 176.053 278.966 159.998 278.966 140.193C278.966 120.388 262.911 104.333 243.106 104.333C223.302 104.333 207.247 120.388 207.247 140.193C207.247 159.998 223.302 176.053 243.106 176.053Z" fill="#43224D" />
        <path d="M148.958 104.333H35.8597C16.0549 104.333 0 120.386 0 140.189C0 159.991 16.0549 176.044 35.8597 176.044H148.958C168.763 176.044 184.818 159.991 184.818 140.189C184.818 120.386 168.763 104.333 148.958 104.333Z" fill="#43224D" />
        <path d="M246.308 0.768433H133.209C113.405 0.768433 97.3496 16.8215 97.3496 36.6241C97.3496 56.4266 113.405 72.4797 133.209 72.4797H246.308C266.113 72.4797 282.168 56.4266 282.168 36.6241C282.168 16.8215 266.113 0.768433 246.308 0.768433Z" fill="#43224D" />
        <path d="M246.308 207.875H133.209C113.405 207.875 97.3496 223.929 97.3496 243.731C97.3496 263.534 113.405 279.587 133.209 279.587H246.308C266.113 279.587 282.168 263.534 282.168 243.731C282.168 223.929 266.113 207.875 246.308 207.875Z" fill="#43224D" />
    </g>
    <defs>
        <clipPath id="clip0_1_8348">
            <rect width="282.169" height="278.812" fill="white" transform="translate(0 0.770935)" />
        </clipPath>
    </defs>
</svg>